<?xml version="1.0"?>
<svg xmlns="http://www.w3.org/2000/svg" viewBox="0 0 512 512" width="512" height="512"><g id="outline"><path d="M470,64h-6V40a24.028,24.028,0,0,0-24-24H376a24.028,24.028,0,0,0-24,24V64H42A26.029,26.029,0,0,0,16,90V422a26.029,26.029,0,0,0,26,26H181.754l-13.515,38.06A8,8,0,0,0,176,496H336a8,8,0,0,0,7.761-9.94L330.246,448H470a26.029,26.029,0,0,0,26-26V90A26.029,26.029,0,0,0,470,64ZM368,40a8.009,8.009,0,0,1,8-8h64a8.009,8.009,0,0,1,8,8V143.437a7.987,7.987,0,0,1-3.562,6.657L416,169.052V152a8,8,0,0,0-8-8H376a8.009,8.009,0,0,1-8-8ZM186.246,480l12-32H313.754l12,32ZM480,422a10.011,10.011,0,0,1-10,10H42a10.011,10.011,0,0,1-10-10V400H480ZM208,353.807V368a8,8,0,0,0,8,8h24a8,8,0,0,0,5.657-2.343L251.313,368H272v16H202a10.011,10.011,0,0,1-10-10V304a24.039,24.039,0,0,1,16-22.624V310.7l-1.933,5.8A50.821,50.821,0,0,0,208,353.807ZM228.262,240H228a20.023,20.023,0,0,1-20-20V168a56,56,0,0,1,112,0v52a20.023,20.023,0,0,1-20,20h-.262A47.8,47.8,0,0,0,312,208V176a8,8,0,0,0-4.849-7.353l-56-24a8,8,0,0,0-8.808,1.7l-24,24A8,8,0,0,0,216,176v32A47.8,47.8,0,0,0,228.262,240ZM232,179.313l17.827-17.826L296,181.275V208a32,32,0,0,1-64,0ZM280,352H256V328h48v56H288V360A8,8,0,0,0,280,352Zm-5.052-73.8L264,296.451,253.052,278.2A7.987,7.987,0,0,0,256,272V255.321a47.468,47.468,0,0,0,16,0V272A7.987,7.987,0,0,0,274.948,278.2ZM273.33,312l19.2-32H304v32Zm-18.66,0H248a8,8,0,0,0-8,8v36.686L236.687,360H224v-8a7.994,7.994,0,0,0-.845-3.578,34.953,34.953,0,0,1-1.908-26.863l2.343-7.03A8.016,8.016,0,0,0,224,312V280h11.47ZM480,384H320V353.807a50.8,50.8,0,0,0,4.5-23.771l12.44,8.357a24,24,0,0,0,38.842-13.207c.009-.04.018-.078.026-.117l14.9-72.361,16.243-10.626A19.941,19.941,0,0,0,416,225.345v-9.511a8,8,0,0,0-8-8H372.521a25.983,25.983,0,0,0-25.562,21.248l-10.194,48.447L316.116,265.14c-.016-.009-.033-.011-.049-.02A7.946,7.946,0,0,0,312,264H288v-8h12a36.04,36.04,0,0,0,36-36V168a72,72,0,0,0-144,0v52a36.04,36.04,0,0,0,36,36h12v8H216a40.045,40.045,0,0,0-40,40v70a25.843,25.843,0,0,0,2,10H32V90A10.011,10.011,0,0,1,42,80H352v56a24.028,24.028,0,0,0,24,24h24v24a8,8,0,0,0,12.438,6.656l40.874-27.25A23.952,23.952,0,0,0,464,143.437V80h6a10.011,10.011,0,0,1,10,10ZM320,307.736V286.129l18.164,10.9a8,8,0,0,0,11.944-5.213l12.529-59.54c.015-.074.03-.148.044-.222a9.995,9.995,0,0,1,9.84-8.219H400v1.511a3.987,3.987,0,0,1-1.811,3.347L379.161,241.14a8,8,0,0,0-3.456,5.082l-15.552,75.553A8,8,0,0,1,347.071,326a7.942,7.942,0,0,0-1.031-.773Z"/><circle cx="280" cy="192" r="8"/><circle cx="248" cy="192" r="8"/><path d="M248.2,217.083a8,8,0,0,0,6.009,9.586,44.029,44.029,0,0,0,19.578,0,8,8,0,1,0-3.578-15.595,27.944,27.944,0,0,1-12.422,0A8,8,0,0,0,248.2,217.083Z"/><path d="M392,64h32a8,8,0,0,0,0-16H392a8,8,0,0,0,0,16Z"/><path d="M392,128h8a8,8,0,0,0,0-16h-8a8,8,0,0,0,0,16Z"/><path d="M152,96H72a24.028,24.028,0,0,0-24,24v64a24.028,24.028,0,0,0,24,24h80a24.028,24.028,0,0,0,24-24V120A24.028,24.028,0,0,0,152,96Zm8,88a8.009,8.009,0,0,1-8,8H72a8.009,8.009,0,0,1-8-8V120a8.009,8.009,0,0,1,8-8h80a8.009,8.009,0,0,1,8,8Z"/><path d="M140.116,145.14l-40-24A8,8,0,0,0,88,128v48a8,8,0,0,0,12.116,6.86l40-24a8,8,0,0,0,0-13.72ZM104,161.871V142.129L120.451,152Z"/><path d="M72,272h40a8,8,0,0,0,0-16H72a8,8,0,0,0,0,16Z"/><path d="M152,256H136a8,8,0,0,0,0,16h16a8,8,0,0,0,0-16Z"/><path d="M152,224H72a8,8,0,0,0,0,16h80a8,8,0,0,0,0-16Z"/><path d="M392,96h25.079a8,8,0,0,0,0-16H392a8,8,0,0,0,0,16Z"/><path d="M72,304H96a8,8,0,0,0,0-16H72a8,8,0,0,0,0,16Z"/><path d="M152,288H120a8,8,0,0,0,0,16h32a8,8,0,0,0,0-16Z"/><path d="M152,336H112a8,8,0,0,0-16,0H72a8,8,0,0,0,0,16H96a8,8,0,0,0,16,0h40a8,8,0,0,0,0-16Z"/></g></svg>
